<svg width="516" height="380" viewBox="0 0 516 380" fill="none" xmlns="http://www.w3.org/2000/svg">
<rect x="68.5" y="0.5" width="379" height="379" rx="59.5" stroke="#6D616D"></rect>
<path d="M305.5 308.75C305.5 282.516 284.234 261.25 258 261.25V256.25C286.768 256.25 310.133 279.389 310.496 308.071L310.5 308.75V375H400.5V380H305.5V308.75ZM258 256.25V261.25H234.25V256.25H258ZM186.75 213.75V190C186.75 163.766 165.484 142.5 139.25 142.5V137.5C168.018 137.5 191.383 160.639 191.746 189.321L191.75 190V213.75C191.75 237.222 210.778 256.25 234.25 256.25V261.25C208.016 261.25 186.75 239.984 186.75 213.75ZM68 47.5C68 34.3832 73.3153 22.5069 81.9111 13.9111C90.5069 5.31532 102.383 0 115.5 0H210.5V71.25C210.5 97.4835 231.766 118.75 258 118.75H281.75C307.984 118.75 329.25 140.016 329.25 166.25V190C329.25 216.234 350.516 237.5 376.75 237.5H448V332.5C448 345.617 442.685 357.493 434.089 366.089L433.273 366.885C424.75 375.011 413.207 380 400.5 380V375C412.238 375 422.857 370.249 430.553 362.553C438.249 354.857 443 344.238 443 332.5V242.5H376.75C347.755 242.5 324.25 218.995 324.25 190V166.25C324.25 143.145 305.812 124.345 282.847 123.764L281.75 123.75H258C229.005 123.75 205.5 100.245 205.5 71.25V5H115.5C103.762 5 93.1434 9.75109 85.4473 17.4473C77.7511 25.1434 73 35.7622 73 47.5V137.5H139.25V142.5H68V47.5Z" fill="#6D616D"></path>
<path d="M80 51C80 28.9086 97.9086 11 120 11H200V91C200 113.091 182.091 131 160 131H80V51Z" fill="#00F3FF"></path>
<rect x="198" y="130" width="120" height="120" rx="40" fill="#09040E"></rect>
<path d="M317 289C317 266.909 334.909 249 357 249H437V329C437 351.091 419.091 369 397 369H317V289Z" fill="#B487FD"></path>
</svg>