<svg width="80" height="80" viewBox="0 0 80 80" fill="none" xmlns="http://www.w3.org/2000/svg">
<path d="M30 0V15C30 20.5228 34.4772 25 40 25H45C50.5228 25 55 29.4772 55 35V40C55 45.5228 59.4772 50 65 50H80V80H50V65C50 59.4772 45.5228 55 40 55H35C29.4772 55 25 50.5228 25 45V40C25 34.4772 20.5228 30 15 30H0V10C0 7.23858 1.11907 4.73836 2.92871 2.92871C4.73836 1.11907 7.23858 0 10 0H30Z" fill="#DA1962"></path>
<path d="M2.00098 68C2.00098 73.5228 6.47813 78 12.001 78H50.001V80H12.001C11.8975 80 11.7943 79.9987 11.6914 79.9961C5.30993 79.8345 0.166477 74.691 0.00488281 68.3096C0.0022778 68.2067 0.000976567 68.1035 0.000976562 68V30H2.00098V68ZM78.001 12C78.001 6.47715 73.5238 2 68.001 2V0C74.6284 0 80.001 5.37258 80.001 12V50H78.001V12ZM24.002 20V10C24.0018 7.79129 22.2111 6.00018 20.002 6H10.002C7.79301 6.00013 6.00209 7.79105 6.00195 10V20.3857L5.85938 20.7432L3.59082 26.4092L9.25977 24.1436L9.61719 24H20.001V26H10.002L0.000976562 30L4.00195 20V10C4.00209 6.68649 6.68844 4.00013 10.002 4H20.002C23.3154 4.00026 26.0018 6.68657 26.002 10V20C26.002 23.3137 23.3147 26 20.001 26V24C22.2105 24 24.002 22.2087 24.002 20ZM68.001 0V2H30.001V0H68.001Z" fill="#F7DDF2"></path>
<path d="M0 30H2V68C2 73.5228 6.47715 78 12 78H50V80H12L11.6904 79.9961C5.30896 79.8345 0.165501 74.691 0.00390625 68.3096L0 68V30Z" fill="#F7DDF2"></path>
<path d="M68 0C74.6274 0 80 5.37258 80 12V50H78V12C78 6.47715 73.5228 2 68 2H30V0H68Z" fill="#F7DDF2"></path>
<path d="M55.999 70V60C55.999 57.8603 57.6796 56.1124 59.793 56.0049L59.999 56H69.999C72.2082 56 73.999 57.7909 73.999 60V70.3848L76.4102 76.4092L70.7422 74.1426L70.3838 74H60V76H69.999L80 80L75.999 70V60C75.999 56.6863 73.3127 54 69.999 54H59.999C56.6855 54.0003 53.999 56.6865 53.999 60V70C53.999 73.3137 56.6863 76 60 76V74C57.7904 74 55.999 72.2087 55.999 70Z" fill="#CCBEDE"></path>
</svg>