<svg width="380" height="380" viewBox="0 0 380 380" fill="none" xmlns="http://www.w3.org/2000/svg">
<path d="M10.5 47.5C10.5 26.5132 27.5132 9.5 48.5 9.5H129.5V90.5C129.5 111.487 112.487 128.5 91.5 128.5H10.5V47.5Z" fill="#BD0558"></path>
<path d="M250 288C250 267.013 267.013 250 288 250H370V332C370 352.987 352.987 370 332 370H250V288Z" fill="#BD0558"></path>
<path d="M131 168C131 147.013 148.013 130 169 130H213C233.987 130 251 147.013 251 168V212C251 232.987 233.987 250 213 250H169C148.013 250 131 232.987 131 212V168Z" fill="#BD0558"></path>
<path d="M332 379V380H48V379H332ZM379 332V48C379 22.0426 357.957 1 332 1H48C22.0426 1 1 22.0426 1 48V332C1 357.957 22.0426 379 48 379V380L47.3799 379.996C21.156 379.664 0 358.303 0 332V48C0 21.6973 21.156 0.335925 47.3799 0.00390625L48 0H332C358.51 0 380 21.4903 380 48V332C380 358.51 358.51 380 332 380V379C357.957 379 379 357.957 379 332Z" fill="black"></path>
</svg>