<svg width="380" height="380" viewBox="0 0 380 380" fill="none" xmlns="http://www.w3.org/2000/svg">
<path d="M332 0C358.51 0 380 21.4903 380 48V332.5C380 345.617 374.685 357.493 366.089 366.089L365.273 366.885C356.75 375.012 345.207 380 332.5 380H48L47.3799 379.996C21.156 379.664 0 358.303 0 332V47.5C0 34.3832 5.31532 22.5069 13.9111 13.9111C22.5069 5.31532 34.3832 0 47.5 0H332ZM10 332C10 352.987 27.0132 370 48 370H237.5V308.75C237.5 282.516 216.234 261.25 190 261.25H166.25C140.016 261.25 118.75 239.984 118.75 213.75V190C118.75 163.766 97.4835 142.5 71.25 142.5H10V332ZM142.5 71.25C142.5 97.4835 163.766 118.75 190 118.75H213.75C239.984 118.75 261.25 140.016 261.25 166.25V190C261.25 216.234 282.516 237.5 308.75 237.5H370V48C370 27.0132 352.987 10 332 10H142.5V71.25Z" fill="black"></path>
</svg>