<svg width="26" height="25" viewBox="0 0 26 25" fill="none" xmlns="http://www.w3.org/2000/svg">
<path d="M15.9697 21C15.9897 21.1633 16 21.3302 16 21.5C16 23.433 14.6569 25 13 25C11.3431 25 10 23.433 10 21.5C10 21.3302 10.0103 21.1633 10.0303 21H15.9697Z" fill="#6D616D"></path>
<path fill-rule="evenodd" clip-rule="evenodd" d="M13 0C14.1045 0 14.9998 1.05323 15 2.35254C15 2.41789 14.9957 2.48287 14.9912 2.54688C20.4187 3.61328 24.6089 8.96541 24.9707 15.5459C25.5844 15.8874 25.9999 16.5419 26 17.2939V18C26 19.1046 25.1046 20 24 20H2C0.895431 20 0 19.1046 0 18V17.2939C6.36488e-05 16.5422 0.415051 15.8875 1.02832 15.5459C1.39006 8.96575 5.58076 3.61372 11.0078 2.54688C11.0034 2.48289 11 2.41787 11 2.35254C11.0002 1.05323 11.8955 0 13 0ZM13 5.88281C8.36756 5.88281 4.55424 10.0001 4.05664 15.2939H21.9434C21.4458 10.0001 17.6324 5.88281 13 5.88281Z" fill="#6D616D"></path>
</svg>