<svg width="20" height="20" viewBox="0 0 20 20" fill="none" xmlns="http://www.w3.org/2000/svg">
<path d="M0 2C0 0.895431 0.895431 0 2 0H18C19.1046 0 20 0.895431 20 2V20H0V2Z" fill="#610C39"></path>
<path d="M6.5 6C6.5 5.44772 6.94772 5 7.5 5C8.05228 5 8.5 5.44772 8.5 6V14C8.5 14.5523 8.05228 15 7.5 15C6.94772 15 6.5 14.5523 6.5 14V6Z" fill="#FFF9FB"></path>
<path d="M11.5 6C11.5 5.44772 11.9477 5 12.5 5C13.0523 5 13.5 5.44772 13.5 6V14C13.5 14.5523 13.0523 15 12.5 15C11.9477 15 11.5 14.5523 11.5 14V6Z" fill="#FFF9FB"></path>
</svg>