<svg width="20" height="20" viewBox="0 0 20 20" fill="none" xmlns="http://www.w3.org/2000/svg">
<path d="M0 2C0 0.895431 0.895431 0 2 0H18C19.1046 0 20 0.895431 20 2V20H0V2Z" fill="#610C39"></path>
<path d="M6 6.81818C6 6.36631 6.44772 6 7 6C7.55228 6 8 6.36631 8 6.81818V7.63636C8 8.08823 7.55228 8.45455 7 8.45455C6.44772 8.45455 6 8.08823 6 7.63636V6.81818Z" fill="#FFF9FB"></path>
<path d="M6 6.81818C6 6.36631 6.44772 6 7 6C7.55228 6 8 6.36631 8 6.81818V7.63636C8 8.08823 7.55228 8.45455 7 8.45455C6.44772 8.45455 6 8.08823 6 7.63636V6.81818Z" fill="#FFF9FB"></path>
<path d="M9 6.81818C9 6.36631 9.44772 6 10 6C10.5523 6 11 6.36631 11 6.81818V7.63636C11 8.08823 10.5523 8.45455 10 8.45455C9.44772 8.45455 9 8.08823 9 7.63636V6.81818Z" fill="#FFF9FB"></path>
<path d="M12 6.81818C12 6.36631 12.4477 6 13 6C13.5523 6 14 6.36631 14 6.81818V7.63636C14 8.08823 13.5523 8.45455 13 8.45455C12.4477 8.45455 12 8.08823 12 7.63636V6.81818Z" fill="#FFF9FB"></path>
<path d="M6 10.0909C6 9.63904 6.44772 9.27273 7 9.27273C7.55228 9.27273 8 9.63904 8 10.0909V10.9091C8 11.361 7.55228 11.7273 7 11.7273C6.44772 11.7273 6 11.361 6 10.9091V10.0909Z" fill="#FFF9FB"></path>
<path d="M9 10.0909C9 9.63904 9.44772 9.27273 10 9.27273C10.5523 9.27273 11 9.63904 11 10.0909V10.9091C11 11.361 10.5523 11.7273 10 11.7273C9.44772 11.7273 9 11.361 9 10.9091V10.0909Z" fill="#FFF9FB"></path>
<path d="M12 10.0909C12 9.63904 12.4477 9.27273 13 9.27273C13.5523 9.27273 14 9.63904 14 10.0909V10.9091C14 11.361 13.5523 11.7273 13 11.7273C12.4477 11.7273 12 11.361 12 10.9091V10.0909Z" fill="#FFF9FB"></path>
<path d="M6 13.3636C6 12.9118 6.44772 12.5455 7 12.5455C7.55228 12.5455 8 12.9118 8 13.3636V14.1818C8 14.6337 7.55228 15 7 15C6.44772 15 6 14.6337 6 14.1818V13.3636Z" fill="#FFF9FB"></path>
<path d="M9 13.3636C9 12.9118 9.44772 12.5455 10 12.5455C10.5523 12.5455 11 12.9118 11 13.3636V14.1818C11 14.6337 10.5523 15 10 15C9.44772 15 9 14.6337 9 14.1818V13.3636Z" fill="#FFF9FB"></path>
<path d="M12 13.3636C12 12.9118 12.4477 12.5455 13 12.5455C13.5523 12.5455 14 12.9118 14 13.3636V14.1818C14 14.6337 13.5523 15 13 15C12.4477 15 12 14.6337 12 14.1818V13.3636Z" fill="#FFF9FB"></path>
</svg>