<svg width="24" height="24" viewBox="0 0 24 24" fill="none" xmlns="http://www.w3.org/2000/svg">
<path d="M14.4492 0C16.0122 0.317345 17.466 0.934121 18.751 1.78516L18.4941 2.04297C17.538 2.99938 17.5379 4.55046 18.4941 5.50684C19.4504 6.46248 21.0008 6.46253 21.957 5.50684L22.2139 5.24902C23.0651 6.53441 23.6827 7.98821 24 9.55176H23.6328C22.2802 9.55179 21.1836 10.6484 21.1836 12.001C21.184 13.3532 22.2805 14.4492 23.6328 14.4492H24C23.6827 16.0125 23.0649 17.4658 22.2139 18.751L21.957 18.4941C21.0007 17.5384 19.4504 17.5383 18.4941 18.4941C17.5379 19.4505 17.538 21.0016 18.4941 21.958L18.751 22.2148C17.4659 23.066 16.0123 23.6826 14.4492 24V23.6338C14.4492 22.2814 13.3523 21.1848 12 21.1846C10.6476 21.1847 9.55176 22.2813 9.55176 23.6338V24C7.98829 23.6827 6.53436 23.0661 5.24902 22.2148L5.50684 21.958C6.46256 21.0017 6.46263 19.4504 5.50684 18.4941C4.5506 17.5379 2.99939 17.5382 2.04297 18.4941L1.78418 18.752C0.933168 17.4668 0.317279 16.0124 0 14.4492H0.367188C1.71933 14.449 2.81604 13.3531 2.81641 12.001C2.81641 10.6485 1.71956 9.55202 0.367188 9.55176H0C0.317292 7.98827 0.932959 6.5334 1.78418 5.24805L2.04297 5.50684C2.99941 6.46262 4.55066 6.46305 5.50684 5.50684C6.46278 4.55063 6.46244 2.99938 5.50684 2.04297L5.24805 1.78418C6.53314 0.933087 7.98764 0.317327 9.55078 0V0.367188C9.55091 1.71959 10.6476 2.81636 12 2.81641C13.3522 2.81614 14.4491 1.71946 14.4492 0.367188V0ZM12 7.71484C9.6332 7.71489 7.71501 9.63313 7.71484 12C7.71484 14.367 9.6331 16.2861 12 16.2861C14.3669 16.2861 16.2861 14.367 16.2861 12C16.286 9.6331 14.3668 7.71484 12 7.71484Z" fill="#E6DFE0"></path>
</svg>